<?xml version="1.0" encoding="UTF-8"?><svg id="Capa_1" xmlns="http://www.w3.org/2000/svg" viewBox="0 0 500 534"><defs><style>.cls-1{stroke-width:3.26px;}.cls-1,.cls-2,.cls-3,.cls-4,.cls-5{fill:#fff;stroke:#f9fff9;stroke-linecap:round;stroke-linejoin:round;}.cls-2{stroke-width:3.25px;}.cls-3{stroke-width:3.25px;}.cls-4{stroke-width:3.24px;}.cls-5{stroke-width:3.26px;}</style></defs><ellipse cx="74.96" cy="77.64" rx="74.96" ry="77.64"/><path class="cls-2" d="M145.17,76.92h0c-.17,39.13-31.73,71.23-70.03,71.23S5.23,115.97,5.11,76.83c0-.08,.1-.12,.16-.07h0c39.35,40.2,100.46,40.28,139.89,.17h.01Z"/><ellipse cx="74.96" cy="266.31" rx="74.96" ry="77.64"/><path class="cls-2" d="M145.17,265.58h0c-.17,39.13-31.73,71.23-70.03,71.23S5.23,304.64,5.11,265.49c0-.08,.1-.12,.16-.07h0c39.35,40.2,100.46,40.28,139.89,.17h.01Z"/><ellipse cx="75.34" cy="456.44" rx="75.34" ry="77.56"/><path class="cls-5" d="M145.9,455.72h0c-.17,39.09-31.89,71.15-70.38,71.15S5.25,494.73,5.13,455.63c0-.08,.1-.12,.16-.07h0c39.55,40.16,100.96,40.24,140.59,.17h.01Z"/><ellipse cx="249.99" cy="77.64" rx="75.35" ry="77.64"/><path class="cls-1" d="M320.56,76.92h0c-.17,39.13-31.89,71.23-70.39,71.23s-70.27-32.17-70.39-71.32c0-.08,.1-.12,.16-.07h0c39.55,40.2,100.97,40.28,140.61,.17h.01Z"/><ellipse cx="250" cy="265.92" rx="75.34" ry="77.25"/><path class="cls-3" d="M320.56,265.2h0c-.17,38.93-31.89,70.87-70.38,70.87s-70.26-32.01-70.38-70.96c0-.08,.1-.12,.16-.07h0c39.55,40,100.96,40.08,140.59,.17h.01Z"/><ellipse cx="425.04" cy="77.25" rx="74.96" ry="77.25"/><path class="cls-4" d="M495.25,76.53h0c-.17,38.93-31.73,70.87-70.03,70.87s-69.91-32.01-70.03-70.96c0-.08,.1-.12,.16-.07h0c39.35,40,100.46,40.08,139.89,.17h.01Z"/></svg>