<?xml version="1.0" encoding="UTF-8"?><svg id="Capa_1" xmlns="http://www.w3.org/2000/svg" xmlns:xlink="http://www.w3.org/1999/xlink" viewBox="0 0 500 534"><defs><style>.cls-1{stroke-width:3.26px;}.cls-1,.cls-2,.cls-3,.cls-4,.cls-5{fill:#fff;stroke:#f9fff9;stroke-linecap:round;stroke-linejoin:round;}.cls-2{stroke-width:3.25px;}.cls-6{filter:url(#drop-shadow-4);}.cls-7{filter:url(#drop-shadow-3);}.cls-8{filter:url(#drop-shadow-1);}.cls-9{filter:url(#drop-shadow-6);}.cls-10{filter:url(#drop-shadow-5);}.cls-11{filter:url(#drop-shadow-2);}.cls-3{stroke-width:3.25px;}.cls-12{fill:red;}.cls-4{stroke-width:3.24px;}.cls-5{stroke-width:3.26px;}</style><filter id="drop-shadow-1" filterUnits="userSpaceOnUse"><feOffset dx="12.21" dy="12.21"/><feGaussianBlur result="blur" stdDeviation="9.46"/><feFlood flood-color="#000" flood-opacity=".69"/><feComposite in2="blur" operator="in"/><feComposite in="SourceGraphic"/></filter><filter id="drop-shadow-2" filterUnits="userSpaceOnUse"><feOffset dx="12.21" dy="12.21"/><feGaussianBlur result="blur-2" stdDeviation="9.46"/><feFlood flood-color="#000" flood-opacity=".69"/><feComposite in2="blur-2" operator="in"/><feComposite in="SourceGraphic"/></filter><filter id="drop-shadow-3" filterUnits="userSpaceOnUse"><feOffset dx="12.23" dy="12.23"/><feGaussianBlur result="blur-3" stdDeviation="9.48"/><feFlood flood-color="#000" flood-opacity=".69"/><feComposite in2="blur-3" operator="in"/><feComposite in="SourceGraphic"/></filter><filter id="drop-shadow-4" filterUnits="userSpaceOnUse"><feOffset dx="12.24" dy="12.24"/><feGaussianBlur result="blur-4" stdDeviation="9.48"/><feFlood flood-color="#000" flood-opacity=".69"/><feComposite in2="blur-4" operator="in"/><feComposite in="SourceGraphic"/></filter><filter id="drop-shadow-5" filterUnits="userSpaceOnUse"><feOffset dx="12.21" dy="12.21"/><feGaussianBlur result="blur-5" stdDeviation="9.46"/><feFlood flood-color="#000" flood-opacity=".69"/><feComposite in2="blur-5" operator="in"/><feComposite in="SourceGraphic"/></filter><filter id="drop-shadow-6" filterUnits="userSpaceOnUse"><feOffset dx="12.18" dy="12.18"/><feGaussianBlur result="blur-6" stdDeviation="9.44"/><feFlood flood-color="#000" flood-opacity=".69"/><feComposite in2="blur-6" operator="in"/><feComposite in="SourceGraphic"/></filter></defs><g class="cls-8"><ellipse class="cls-12" cx="74.96" cy="77.64" rx="74.96" ry="77.64"/><path class="cls-2" d="M145.17,76.92h0c-.17,39.13-31.73,71.23-70.03,71.23S5.23,115.97,5.11,76.83c0-.08,.1-.12,.16-.07h0c39.35,40.2,100.46,40.28,139.89,.17h.01Z"/></g><g class="cls-11"><ellipse class="cls-12" cx="74.96" cy="266.31" rx="74.96" ry="77.64"/><path class="cls-2" d="M145.17,265.58h0c-.17,39.13-31.73,71.23-70.03,71.23S5.23,304.64,5.11,265.49c0-.08,.1-.12,.16-.07h0c39.35,40.2,100.46,40.28,139.89,.17h.01Z"/></g><g class="cls-7"><ellipse class="cls-12" cx="75.34" cy="456.44" rx="75.34" ry="77.56"/><path class="cls-5" d="M145.9,455.72h0c-.17,39.09-31.89,71.15-70.38,71.15S5.25,494.73,5.13,455.63c0-.08,.1-.12,.16-.07h0c39.55,40.16,100.96,40.24,140.59,.17h.01Z"/></g><g class="cls-6"><ellipse class="cls-12" cx="249.99" cy="77.64" rx="75.35" ry="77.64"/><path class="cls-1" d="M320.56,76.92h0c-.17,39.13-31.89,71.23-70.39,71.23s-70.27-32.17-70.39-71.32c0-.08,.1-.12,.16-.07h0c39.55,40.2,100.97,40.28,140.61,.17h.01Z"/></g><g class="cls-10"><ellipse class="cls-12" cx="250" cy="265.92" rx="75.34" ry="77.25"/><path class="cls-3" d="M320.56,265.2h0c-.17,38.93-31.89,70.87-70.38,70.87s-70.26-32.01-70.38-70.96c0-.08,.1-.12,.16-.07h0c39.55,40,100.96,40.08,140.59,.17h.01Z"/></g><g class="cls-9"><ellipse class="cls-12" cx="425.04" cy="77.25" rx="74.96" ry="77.25"/><path class="cls-4" d="M495.25,76.53h0c-.17,38.93-31.73,70.87-70.03,70.87s-69.91-32.01-70.03-70.96c0-.08,.1-.12,.16-.07h0c39.35,40,100.46,40.08,139.89,.17h.01Z"/></g></svg>